<?xml version="1.0" standalone="no"?>
<!DOCTYPE svg PUBLIC "-//W3C//DTD SVG 20010904//EN"
 "http://www.w3.org/TR/2001/REC-SVG-20010904/DTD/svg10.dtd">
<svg version="1.0" xmlns="http://www.w3.org/2000/svg"
 width="440.000000pt" height="96.000000pt" viewBox="0 0 440.000000 96.000000"
 preserveAspectRatio="xMidYMid meet">

<g transform="translate(0.000000,96.000000) scale(0.100000,-0.100000)"
fill="#000000" stroke="none">
<path d="M2702 798 c-9 -9 -12 -78 -12 -250 l0 -238 33 0 c45 0 57 15 57 73 0
66 13 87 53 86 28 0 40 -11 92 -77 59 -75 62 -77 108 -80 26 -2 47 1 47 6 0 5
-31 51 -70 102 -38 51 -70 96 -70 100 0 3 29 35 65 70 36 35 65 68 65 72 0 4
-21 8 -47 8 -44 0 -51 -4 -103 -55 -47 -46 -62 -56 -95 -58 l-40 -2 -3 128 -3
127 -32 0 c-18 0 -38 -5 -45 -12z"/>
<path d="M3152 798 c-9 -9 -12 -78 -12 -250 l0 -238 33 0 c51 0 57 13 57 121
0 54 4 109 9 122 13 33 60 51 123 45 73 -7 78 -18 78 -165 l0 -123 34 0 c56 0
66 24 65 160 -1 137 -6 157 -42 184 -24 18 -43 21 -117 21 -76 0 -93 -3 -119
-23 l-31 -23 0 91 0 90 -33 0 c-18 0 -38 -5 -45 -12z"/>
<path d="M1384 779 c-17 -5 -43 -21 -58 -35 -21 -22 -26 -36 -26 -80 0 -103
16 -117 177 -154 111 -26 138 -55 93 -100 -18 -18 -33 -20 -133 -20 -119 0
-137 -6 -137 -46 0 -31 15 -34 153 -34 132 0 194 17 216 58 14 26 14 127 1
153 -13 24 -51 43 -115 58 -27 6 -74 18 -102 27 -51 14 -53 16 -53 49 0 48 19
55 147 55 115 0 133 6 133 46 0 17 -8 23 -37 28 -55 9 -223 6 -259 -5z"/>
<path d="M1790 667 c-15 -8 -26 -23 -28 -39 l-3 -26 121 -4 c107 -3 123 -5
136 -22 8 -11 14 -28 14 -37 0 -16 -11 -18 -104 -17 -119 1 -160 -11 -181 -53
-23 -44 -19 -85 14 -121 29 -33 30 -33 124 -33 87 0 98 2 121 24 l25 24 7 -27
c5 -20 12 -26 33 -26 47 0 51 13 51 162 0 133 -1 140 -24 163 -13 13 -41 28
-62 34 -54 15 -213 14 -244 -2z m213 -207 c36 0 37 -31 1 -59 -20 -15 -41 -21
-81 -21 -63 0 -93 13 -93 39 0 35 44 53 110 45 19 -2 47 -4 63 -4z"/>
<path d="M2360 669 c-13 -6 -33 -17 -43 -26 -17 -16 -18 -15 -24 6 -5 18 -11
22 -42 19 l-36 -3 -3 -177 -2 -178 33 0 c52 0 57 12 57 135 0 135 7 146 100
153 53 4 61 2 84 -21 25 -25 26 -31 26 -147 l0 -120 33 0 c54 0 57 10 57 167
0 131 -2 145 -20 163 -12 12 -32 25 -46 30 -32 13 -142 12 -174 -1z"/>
<path d="M4060 667 c-17 -8 -26 -22 -28 -42 l-3 -30 97 3 c53 2 107 1 120 -2
31 -8 54 -33 54 -58 0 -19 -4 -20 -62 -16 -91 7 -187 -6 -210 -29 -25 -25 -34
-85 -18 -122 19 -46 67 -64 160 -59 65 2 83 7 103 26 l25 23 6 -25 c5 -20 13
-26 34 -26 48 0 52 13 52 162 0 133 -1 140 -24 163 -13 13 -41 28 -62 34 -54
15 -213 14 -244 -2z m235 -218 c13 -13 -5 -40 -36 -56 -29 -15 -113 -17 -140
-3 -37 21 -19 63 31 73 34 6 133 -3 145 -14z"/>
<path d="M3573 658 c3 -7 40 -96 82 -198 l76 -185 -20 -52 -20 -53 43 0 c24 0
48 6 54 13 6 7 50 114 97 237 48 124 89 231 92 238 4 10 -6 12 -43 10 -57 -4
-54 0 -116 -162 l-41 -110 -48 123 c-26 67 -53 128 -59 136 -16 19 -105 21
-97 3z"/>
</g>
</svg>
